<svg xmlns="http://www.w3.org/2000/svg" width="34" height="33.161" viewBox="0 0 8.996 8.774"><path d="M4.498 0a4.498 4.498 0 0 0-1.422 8.766c.225.041.307-.098.307-.217l-.006-.765c-1.251.272-1.515-.603-1.515-.603-.205-.52-.5-.658-.5-.658-.408-.279.031-.273.031-.273.452.032.69.463.69.463.4.688 1.052.49 1.308.374.041-.29.157-.489.286-.601-.999-.114-2.049-.5-2.049-2.223 0-.491.175-.893.463-1.207-.046-.114-.2-.571.044-1.19 0 0 .378-.121 1.237.46.359-.1.744-.149 1.126-.151.382.002.767.052 1.126.152.859-.582 1.236-.461 1.236-.461.245.619.09 1.076.045 1.19.288.314.462.716.462 1.207 0 1.728-1.052 2.108-2.054 2.22.162.138.306.413.306.832 0 .602-.006 1.087-.006 1.234 0 .12.081.26.31.217A4.5 4.5 0 0 0 4.496 0" fill="#fff" fill-rule="evenodd"/></svg>
