<svg fill="none" xmlns="http://www.w3.org/2000/svg" viewBox="0 0 1022 942">
  <path d="M0 923.5V0h1022v922.9l-4-4.9c-2.2-1.1-6.5.6-8 1.5-1.6 1-2.7-5-3.9-6.6-7.6 3-21.6-12.4-24.6-6.2-5 1-15.5 1.4-17.6.6-1.5-.6-3.5-1-4.4-.8a11 11 0 01-3.4-.6c-1.1-.5-2.4-.2-3.5.8-1 .8-2.6 1.6-3.7 1.6-11 .2-12.7.7-15.3 3.7-3.3 3.8-5.7 4.7-7.6 2.8-2-2-6.5-1.8-10 .5-3.8 2.5-7.5 2.6-9.1.3-1.2-1.6-1.6-1.6-6.6.6-3 1.3-6.5 2.6-7.9 2.8-6.1 1.1-6.9 1.4-7.4 3.2-.4 1-2.4 2.6-4.7 3.5-5 2.3-6.9 1-10.9-7.9-3.5-7.6-6.2-10.2-9.3-8.8-1.4.7-3.1.7-4.7.1-2.7-1-7 .4-7 2.2 0 2-2.7 1-3.8-1.5-.8-1.7-1.9-2.4-3.4-2.2-1.7.2-2.3-.4-2.9-3.1-1.6-7.8-4.5-7.4-8.3 1.3l-2.7 5.9-3-2.9a16 16 0 01-3.5-4.6c-.7-2.2-11.8-1.6-14.5.8-.9.7-2.5 1.3-3.7 1.3a3 3 0 00-2.8 2.1c-.8 2.5-2.1 1.4-2.6-2s-3.2-3.8-4.6-.6c-1.4 3-3.2 3.4-3.3.8 0-3.9-1.8-5-3.9-2.3l-1.9 2.5-2.5-2.7c-1.4-1.5-3-2.8-3.4-2.8-.8 0-1.9-2.8-3.8-9.7-.6-2-3.3-1.4-4 1a45.7 45.7 0 01-12.6 13.7c-1 0-1.9-2-3.5-7.4-2-6.7-7.4 1-7.4 10.4 0 5.9-2.3 8.7-4.6 5.6-.7-1-1.4-3-1.4-4.4 0-2.8-4.5-11.2-6-11.2-.6 0-2 .5-3 1a2.8 2.8 0 01-3.1-4.7l2.1-1.8-5-5.8c-2.7-3.2-5-6.3-5-6.8 0-.7-1.5-.8-4-.4-4.8.9-7.8-.8-5.8-3.2.9-1 .9-1.6.1-2a17 17 0 01-2.8-5c-3-7.4-10.9-5.3-11 3 0 4.4-3.5 4.6-4.8.2-2.7-9-4.7-11.2-7.2-7.8-1.4 2-4.5 1.2-4.5-1 0-.9-.5-2.8-1.2-4.3a18 18 0 01-1.2-4.7c-.1-3.5-4.8-6-8-4.5-2.4 1-3 1-3.4 0-1.4-4.3-6.7-4.7-8.3-.5-1.3 3.5-5.3 2.1-6-2-.6-3-2.8-3.1-3.9-.2-1.4 3.7-3.8 3.2-4.6-1-1-5.3-3.6-4.5-6.3 2-3.5 8.5-5.4 8.3-6.6-.7-.8-5.7-2.7-6.2-5.1-1.6l-1.7 3.2-1.8-3.4c-3.8-7.2-4.2-7.9-5.5-8.4-1.4-.5-2.2.1-5 4-2 2.8-5.6-1.5-4.7-5.9.6-3.2-3.4-3.2-8.4 0-3 1.9-3 1.9-5.2-3.1-3.7-8.5-9.9-7-14.7 3.4-2.7 6-4.4 7.6-4.4 4.5 0-2.1-8.1-10.4-10.2-10.4-2 0-3.8 2-4.7 5.6-1.3 4.8-5.7 4.5-6.6-.4-1.4-8.1-1.8-9.3-3.1-9.3-.8 0-1.7 1.2-2 2.5-1 4.1-3.4 2.7-3.9-2.3-.6-6-4.6-9.1-7.5-6-2.7 2.9-7.8 1-8.3-3-.4-3.9-5.9-4.4-7.6-.7-1.2 2.7-4.2 3.5-4.2 1.2s-3.3-4.7-5-3.6c-2.2 1.4-2.7 1.2-3.4-1.6-1-4-4.7-3.2-9.5 2.2-3.7 4.2-4.4 4.6-6 3.6-2.6-1.6-5-.6-5.7 2.4-1 4-4.8 2-7.6-4.3-1.1-2.5-1.9-2.6-6.7-1.2-.9.2-1.7-.8-2.2-2.8-2-7.1-6.4-5.7-10 3.1-3.5 8.6-6.3 8.4-5.5-.2.4-5 .2-7.2-.8-8.6-2.3-3-5-1.7-5.4 2.3-.6 6.7-5.8 5.7-6-1.1-.1-4-1.5-5.5-3.3-3.4-5.1 6-8.3 7-13.8 3.8-3-1.7-3-1.7-6.4 1.5-3.7 3.7-5.7 3-5.7-2 0-4.6-7-6.2-8.5-2-1.8 5.5-7.3 5.8-11.5.8-1.8-2.2-4.2-2-8.6 1a22.3 22.3 0 01-5.7 3c-4.2.8-6.4 1.8-9.5 4.6-4.4 3.8-5 3.6-7.2-1.5-2.7-6.3-6.2-7.3-10.5-3-1.3 1.3-2.1 1.4-4.4.4-3.8-1.6-8.6.4-12.8 5.2l-3.2 3.6-1.6-2.5c-1.8-2.6-4.6-2.6-7.4.2-1 1-1.9 1-3.2.2-2.2-1.4-8.2 1.5-10.5 5-.8 1.2-2 2.2-2.8 2.2-1.4 0-5.7 5.3-5.7 7.1 0 .9-.3.9-1.3 0-1-.8-1.9-.4-3.7 1.5-3.1 3.3-10.5 3.6-9.7.4 1.5-5.6-5.2-7.4-7.9-2.1a22 22 0 01-2.7 4c-1 1-1.7 2.5-1.7 3.3 0 2.4-14 15.2-15.3 14-1.6-1.7-6-1.4-8.6.5-2.2 1.5-2.4 1.5-3.2 0-1.4-2.4-5-.4-7.4 4.1-1.2 2.2-2.9 3.9-4.1 4-1.2.2-3 1.2-4 2.3-1.5 1.7-2 1.8-3.3.5-2.2-2-3.1-1.1-7 5.6-4.1 7.4-9.8 7.3-16-.3-2.7-3.5-3.6-3-8.6 4.4-3.3 4.9-4.2 5-5.8.5-1.5-4.2-6.2 1.3-8.7 10.2-1 3.6-3.4 4.7-6.5 3-1.4-.7-2.7-1.1-2.8-.9l-2 3.2c-1 1.6-2.7 2.7-4 2.7-1.1 0-2.9.8-3.8 1.6-2 1.9-4 1.1-4-1.6 0-4.7-4.3-2.4-5.5 3-1 4-3.1 6.5-4.7 5.3-.9-.8-1.8-.7-3.2.3-1 .8-2.7 1.4-3.6 1.4-1 0-2 .8-2.3 1.6-.5 1.2-1.4 1.5-3.3 1-2.3-.6-3.3 0-6.4 3.4-3.3 3.6-4.2 4-8.3 4-3.9 0-4.8.5-6.6 3-3.3 4.7-9 2-9-4.2 0-5.5-6.3-2.5-9.1 4.4-1.4 3.3-4.5 3.8-5.5.8-1-3.4-5.7.4-7.8 6.4-.7 1.9-.8 1.9-3-.2-3.3-3.1-4.8-2.7-7.9 2.4-1.5 2.4-3.4 4.4-4.4 4.4-.9 0-3.1 1.7-5 3.8-3.8 4.4-5.2 3.8-6-2.6-.4-2.5-1.2-4.2-2-4.2-.7 0-1.7-.7-2.3-1.7-1.4-2.2-5 1.6-5 5.2 0 4-3.5 6.1-4.9 3-1.3-2.9-2.7-3.1-4-.7-1 1.5-1.4 1.6-3.2.5-1.1-.8-2.5-1-3.1-.7-.6.4-2.2.1-3.5-.6-2.2-1.2-2.7-1-5.3 1.5-1.8 1.7-3.6 2.6-4.5 2.2-.8-.3-1.8-.1-2.2.5-.3.5-1.6.8-2.8.4-1.7-.4-2.8.2-4.5 2.5-2.6 3.6-4.7-4.2-5.5-7.6-.4-1.3-3.6-7.8-3.6-9.3z" fill="url(#paint0_linear)"/>
  <defs>
    <linearGradient id="paint0_linear" x1="511.5" y1="0" x2="511.5" y2="1203.2" gradientUnits="userSpaceOnUse">
      <stop stop-color="#0B0E12"/>
      <stop offset="0" stop-color="#121416"/>
      <stop offset="1" stop-color="#022E47"/>
    </linearGradient>
  </defs>
</svg>