<svg xmlns="http://www.w3.org/2000/svg" width="34" height="27.646" viewBox="0 0 34 27.646">
	<path d="M10.68 27.646c12.83 0 19.85-10.64 19.85-19.85 0-.3 0-.599-.013-.898A14.213 14.213 0 0 0 34 3.278a14.14 14.14 0 0 1-4.014 1.103A7.02 7.02 0 0 0 33.061.517a13.877 13.877 0 0 1-4.435 1.687A6.963 6.963 0 0 0 23.537 0c-3.85 0-6.98 3.13-6.98 6.98 0 .544.069 1.074.178 1.591-5.796-.285-10.94-3.074-14.381-7.292a6.978 6.978 0 0 0-.939 3.51 6.995 6.995 0 0 0 3.102 5.81 7.057 7.057 0 0 1-3.156-.871v.095a6.991 6.991 0 0 0 5.591 6.844 6.802 6.802 0 0 1-1.836.245c-.45 0-.885-.041-1.306-.123a6.976 6.976 0 0 0 6.517 4.844 13.993 13.993 0 0 1-8.667 2.993c-.558 0-1.116-.027-1.66-.095a19.845 19.845 0 0 0 10.68 3.115" fill="#ebf4f1"/>
</svg>
