<svg viewBox="0 0 800 800" xmlns="http://www.w3.org/2000/svg" stroke-linecap="round">
  <path d="M541.3 522.6c-17.9 23.4-64.6 15.3-64.6 15.3l-.4-157.9-.1-31.9s26.6.7 46.8 9.1c9.7 4 18 9.8 21.1 18.2 10.8 28.9 11.9 128-2.8 147.2z" fill="#fff"/>
  <path d="M552.2 441.2c.6 34.6-2.6 70.6-10.9 81.4-17.9 23.4-64.6 15.3-64.6 15.3l-.5-189.8 1.4.1.4 148s46.7 8.1 64.6-15.3c4.9-6.4 8-21.4 9.6-39.7z" fill="#371a45" fill-opacity=".35"/>
  <path d="M476.2 348.1s58.4 1.6 67.9 27.2c10.8 29 11.9 128.1-2.9 147.3-17.9 23.4-64.6 15.3-64.6 15.3" fill="none" stroke="#371a45" stroke-width="6.66"/>
  <path d="M548.8 455.7l-31.8 2.4a6.3 6.3 0 00-5.7 5.1c-1.9 10.3-4.9 34.2 5.1 42.1a24.5 24.5 0 0029.6-.9c8.8-7.5 9.7-30.9 9.5-42.5 0-3.6-3.1-6.4-6.7-6.2z" fill="#fff"/>
  <path d="M511.3 463.2c-1.9 10.3-4.9 34.2 5.1 42.1a24.5 24.5 0 0029.6-.9c5.4-4.6 7.8-15.2 8.9-25.4a27 27 0 01-6.5 12c-16 15.6-28-2.8-28-2.8s-2.1 4.5-3.7 4.7c-6.9 1.1-5.5-20.6-4.5-31.8-.4.6-.7 1.3-.9 2.1z" fill="#371a45" fill-opacity=".35"/>
  <path d="M548.8 455.7l-31.8 2.4a6.3 6.3 0 00-5.7 5.1c-1.9 10.3-4.9 34.2 5.1 42.1a24.5 24.5 0 0029.6-.9c8.8-7.5 9.7-30.9 9.5-42.5 0-3.6-3.1-6.4-6.7-6.2z" fill="none" stroke="#371a45" stroke-width="6.66"/>
  <path d="M523.3 469.4c.4 4 .4 7.8.6 11.6a54 54 0 001.6 10.9c.9 3.5 2.4 6.7 4.5 9.1 2.1 2.4 5 4 8.2 4.7a3.3 3.3 0 11-1.5 6.5l-.2-.1a28 28 0 01-6.1-2.8 18 18 0 01-4.9-4.6 27.2 27.2 0 01-4.9-11.7c-.8-4-1-8-1-11.9 0-3.9.3-7.8.2-11.5 0-1 .7-1.8 1.7-1.8 1-.1 1.7.6 1.8 1.6zm6.7-95.2a131.6 131.6 0 00-17.6 2.5 135.3 135.3 0 00-17.2 4.3h-.1c-1.8.5-3.6-.5-4.2-2.2-.5-1.8.5-3.6 2.2-4.2l.3-.1c3-.6 6-1.1 9.1-1.5l9.1-1c3-.3 6.1-.4 9.1-.5l9.1-.1c.8 0 1.4.7 1.4 1.5.2.7-.4 1.3-1.2 1.3z" fill="#371a45"/>
  <path d="M523.1 357.1a134.2 134.2 0 01-46.8 22.8l-.1-31.9c0 .1 26.7.8 46.9 9.1z" fill="#371a45" fill-opacity=".35"/>
  <path d="M414.2 640.3c-13.6 31.5-71.8 26.3-86.5 13.3-15.1-13.4 12.2-30.1 12.2-30.1-12.1-20.6-12.5-60-11.2-85.3.7-13.9 1.9-23.5 1.9-23.5l85.8-46.5c-.1 17.5-3 32.4-5.6 44.4-5.6 25.4-5.2 45-3 61 4.2 29.8 14.9 47.1 6.4 66.7z" fill="#fff"/>
  <path d="M414.2 640.3c-13.6 31.5-71.8 26.3-86.5 13.3-4.7-4.2-5.3-8.8-3.8-13 19.9 11.7 70.4 20.6 80.3-9.2 4.8-14.6-4.6-24.7-9.7-44.4a23.8 23.8 0 00-17-16.9c-17.6-4.5-39.3-14.1-48.2-30.8l-.5-1.1c.7-13.9 1.9-23.5 1.9-23.5l76.8-41.6 9-4.9c-.1 17.5-3 32.4-5.6 44.4l-1.1 5.5-.9 5.3-.4 2.6-1 7.5-.2 2.4-.4 4.5c-.3 4.6-.4 9-.4 13.1v1.3l.1 2.7.2 3.6.2 2.5.1 1.6.1 1.4.1 1.3.7 5.5c4 30 14.7 47.3 6.2 66.9zM409.6 518.2l-.9 5.3.9-5.3z" fill="#371a45" fill-opacity=".35"/>
  <path d="M330.5 514.8s-9.5 76.8 9.3 108.8c0 0-27.2 16.7-12.2 30.1 14.7 13 72.9 18.2 86.5-13.3 13-30.2-19.4-55-3.5-127.6 2.6-12 5.5-26.9 5.6-44.4" fill="none" stroke="#371a45" stroke-width="6.66"/>
  <path d="M414.7 595.5s-55.6 6.2-85.3-10.5" fill="none" stroke="#371a45" stroke-width="4.99"/>
  <path d="M507.9 469.3c-.3 12.8-1.9 23.7-4.8 32.1l-.3.8a80.8 80.8 0 01-44.2 47.7 131.3 131.3 0 01-62.3 11c-16-1.1-54.4-10.3-67.1-34.1-8.5-16-6.5-61.9 3.9-131.5 4.1-27.6 9.6-59 16.2-93.7l124.3 6.7c9 23.5 16.1 46.3 21.5 67.6a357.1 357.1 0 0112.8 93.4z" fill="#fff"/>
  <path d="M502.8 502.2a80.7 80.7 0 01-44.2 47.7c-8 3.6-31.5 13.1-62.3 11-16-1.1-54.4-10.3-67.1-34.1-4-7.4-5.6-21.2-5.3-40.9.3 11.7 2 20.1 5.3 25.1 12.7 19.5 51.2 27.1 67.1 28 30.8 1.8 54.3-6.1 62.3-9a74.2 74.2 0 0044.2-39.2c3.2-7.5 5-17.4 5.1-29.3.2 16.7-1.5 30.5-5.1 40.7z" fill="#371a45" fill-opacity=".35"/>
  <path d="M327.3 438.8c-2 18.2-3.2 34-3.4 47.1-.3-12.2.9-28.1 3.4-47.1zm180.6 22.6z" fill="#371a45" fill-opacity=".35"/>
  <path d="M473.7 308.2c32.5 85.1 41.1 160 29.1 193.9a81.2 81.2 0 01-44.2 47.8c-8 3.6-31.5 13.1-62.3 11l-15.2-2.4m-31.8-257c-23.3 122.3-32.1 203-20.2 225.3 1.8 3.4 4.2 6.5 6.9 9.4 11.3 11.7 29.2 18.6 43.7 22" fill="none" stroke="#371a45" stroke-width="6.66"/>
  <path d="M409.5 538.6s-13 65.1 14 96.7c0 0-27.2 16.7-12.2 30.1 14.7 13 72.9 18.2 86.5-13.3 13-30.2-19.4-55-3.5-127.6 2.6-12 5.5-26.9 5.6-44.4l-90.4 58.5z" fill="#fff"/>
  <path d="M494.4 524.6c-15.9 72.6 16.5 97.5 3.5 127.6-13.6 31.5-71.8 26.3-86.5 13.3-3.9-3.5-5-7.2-4.4-10.8 19.8 10.4 69.3 12.2 81.7-16.5 4.5-10.4-22.6-30.6-22.8-53.1a153 153 0 0110.7-53.2 19 19 0 00-16.9-25.5h-.3c-7.3-.4-15.2-1.4-23.6-3.2 0 0-13.7-17.4 1.6-27.1 0 0 46.5 6.4 70.6-6.7-.3 12.8-1.9 23.7-4.8 32.1l-4.7 1.3c-1.2 8-2.7 15.4-4.1 21.8z" fill="#371a45" fill-opacity=".35"/>
  <path d="M410.6 539c.2 8.4-.2 16.7-.5 24.9-.2 8.2-.3 16.4.4 24.6a121.2 121.2 0 004.4 23.9 59.5 59.5 0 0011.1 20.9c1.2 1.4 1 3.5-.4 4.7l-.3.3c-1.2.7-2.5 1.7-3.7 2.6a49 49 0 00-9.3 9.5 10.8 10.8 0 00-2.1 7 9.6 9.6 0 003.7 5.9c2 1.7 4.7 3.1 7.5 4.2s5.7 2 8.7 2.7a88.3 88.3 0 0036.9.5 40.4 40.4 0 0023.3-12.5 31 31 0 004.6-7.3 36.7 36.7 0 002.7-17.4c-.4-6.1-1.9-12.2-3.4-18.4-1.5-6.2-3.1-12.6-4.4-19a161.8 161.8 0 01-1.2-58.9c1-6.5 2.4-13 3.7-19.2 1.3-6.3 2-12.6 2.9-18.8.9-6.3 1.7-12.5 3.6-18.9.2-.6.8-1 1.4-.8.4.1.7.4.8.8a54.6 54.6 0 011.2 19.7c-.6 6.6-2.1 13-3.4 19.3a201.6 201.6 0 00-5.6 37.7 154 154 0 003 37.7c1.2 6.2 2.8 12.4 4.3 18.7 1.5 6.3 3.1 12.7 3.5 19.6.5 6.8-.5 14-3.2 20.5a34.8 34.8 0 01-13.5 15.9 67 67 0 01-28.9 9.2 95.8 95.8 0 01-39.6-5 36.4 36.4 0 01-9.3-5.3l-1.1-1-1-1c-.6-.8-1.3-1.5-1.8-2.4a13.5 13.5 0 01-1.4-12 24 24 0 012.4-5.1c2-3.1 4.4-5.6 6.9-8l3.9-3.3 4.2-3-.8 5a66.2 66.2 0 01-12.4-23.1c-1.4-4.1-2.3-8.4-3.2-12.6l-1.1-6.4a139.8 139.8 0 01.6-44.6 75 75 0 013.5-12.3c.2-.6.9-.9 1.5-.6.6.3.9.7.9 1.1z" fill="#371a45"/>
  <path d="M493 595.5s-48.2 15.3-85.5-2.1" fill="none" stroke="#371a45" stroke-width="4.99"/>
  <circle cx="317.4" cy="465.5" r="15.5" fill="#fff"/>
  <path d="M302 465.9a15.5 15.5 0 1029.3-7.4 15.3 15.3 0 01-13.8 9.2c-6.2.2-11.6-3.3-14.2-8.5-.9 2.1-1.4 4.4-1.3 6.7z" fill="#371a45" fill-opacity=".35"/>
  <circle cx="317.4" cy="465.5" r="15.5" fill="none" stroke="#371a45" stroke-width="6.66"/>
  <path d="M324.9 480.6a243 243 0 002.4-47.8 245 245 0 01-2.5 26 136.4 136.4 0 00-1.1 32.6c.3-3.7.7-7.3 1.2-10.8z" fill="#371a45" fill-opacity=".35"/>
  <path d="M339.8 510.6l80.8 4.2c9.6.5 17.8-6.9 18.3-16.5l2.2-43a17.6 17.6 0 00-16.6-18.3l-80.8-4.2a17.4 17.4 0 00-18.3 16.5l-1.8 34.1-.5 8.9a17.8 17.8 0 0016.7 18.3z" fill="#fff"/>
  <path d="M339.8 510.6l80.8 4.2c9.6.5 17.8-6.9 18.3-16.5l2.2-43c.4-8.4-5.2-15.7-13.1-17.8l-7.8 4.6c-5.7 34.3-16.4 51-59.3 49.5-18.5-.7-30.1-4.1-37.2-8.3l-.5 8.9a17.7 17.7 0 0016.6 18.4z" fill="#371a45" fill-opacity=".35"/>
  <path d="M420.7 514.7l-80.8-4.2c-9.6-.5-17-8.7-16.5-18.3l2.2-43c.5-9.6 8.7-17 18.3-16.5l80.8 4.2c9.6.5 17 8.7 16.5 18.3l-2.2 43c-.5 9.6-8.8 17-18.3 16.5z" fill="none" stroke="#371a45" stroke-width="6.66"/>
  <path d="M336.6 510.1c1 .3 2.1.4 3.2.5l80.8 4.2a17.5 17.5 0 0018.3-16.5l1-19.1.3-6.3.9-17.6c.5-9.6-6.9-17.8-16.5-18.3l-17.5-.9c8 1.9 13.7 9.3 13.3 17.8l-1.2 23.2-1 19.8c-.5 9.6-8.7 17-18.3 16.5l-63.3-3.3z" fill="#fff"/>
  <path d="M336.6 510.1c1 .3 2.1.4 3.2.5l80.8 4.2c9.6.5 17.8-6.9 18.3-16.5l1.3-25.4c-2.3 4.4-6.2 9.7-12.1 10-3.2.2-6.3-2.3-8.9-5.7l-1 19.8c-.5 9.6-8.7 17-18.3 16.5l-63.3-3.4z" fill="#371a45" fill-opacity=".35"/>
  <path d="M439 498.2c-.5 9.6-8.7 17-18.3 16.5l-80.8-4.2c-1.1-.1-2.2-.2-3.2-.5l63.4 3.3c9.6.5 17.8-6.9 18.3-16.5l2.2-43c.4-8.5-5.3-15.9-13.3-17.8l17.5.9c9.6.5 17 8.7 16.5 18.3l-2.3 43z" fill="none" stroke="#371a45" stroke-width="6.66"/>
  <path d="M387.5 474c-.1 1.6 1.6 14.5 1.6 14.5l9.1.4c6.2.3 11.6-5.9 12-13.9.4-8-4.4-14.7-10.6-15l-9.1-.4s-2.9 11.9-3 14.4z" fill="#22a7f0"/>
  <path d="M387.5 474c-.1 1.6 1.6 14.5 1.6 14.5l9.1.4c6.2.3 11.6-5.9 12-13.9.4-8-4.4-14.7-10.6-15l-9.1-.4s-2.9 11.9-3 14.4z" fill="#371a45" fill-opacity=".35"/>
  <path d="M387.5 474c-.1 1.1.8 7.9 1.2 11.8a3.3 3.3 0 003.1 2.9l6.3.3c6.2.3 11.6-5.9 12-13.9.4-8-4.4-14.7-10.6-15l-6.3-.3c-1.6-.1-3 1-3.4 2.6-.8 3.6-2.2 9.8-2.3 11.6z" fill="none" stroke="#371a45" stroke-width="4.99"/>
  <path d="M378.4 473.7c.4-8 5.7-14.3 12-14 6.2.3 11 7 10.6 15-.4 8-5.7 14.2-12 14-6.2-.3-11-7-10.6-15z" fill="#22a7f0" stroke="#371a45" stroke-width="5"/>
  <path d="M354.3 433.3l-1.9 39 13.4 9.4-.8 29.9" fill="none" stroke="#371a45" stroke-width="4.99"/>
  <path d="M511.4 454.5s7.5 6 7.8 15.1c.4 10.6-6.3 14.9-6.3 14.9s-29.1 14.9-75.7 5c0 0-13.7-17.4 1.6-27.1-.1 0 49.2 6.7 72.6-7.9z" fill="#fff"/>
  <path d="M519.2 469.6c.4 10.6-6.3 14.9-6.3 14.9s-29.1 14.9-75.7 5c0 0-4.5-5.7-5.5-12.4l.4.5a132 132 0 0069.6-2.5 18 18 0 0012.4-17.1v-.8c2.1 2.6 4.9 6.9 5.1 12.4z" fill="#371a45" fill-opacity=".35"/>
  <path d="M511.4 454.5s7.5 6 7.8 15.1c.4 10.6-6.3 14.9-6.3 14.9s-29.1 14.9-75.7 5c0 0-13.7-17.4 1.6-27.1-.1 0 49.2 6.7 72.6-7.9z" fill="none" stroke="#371a45" stroke-width="6.66"/>
  <path d="M486.4 353.9s42 61.4 25.8 104.6c-10.3 27.4-55.7 25.7-69.4 5.4l-26.9-47.4 70.5-62.6z" fill="#fff"/>
  <path d="M512.2 458.5c-10.3 27.4-55.6 25.7-69.4 5.4l-26.9-47.4 10-8.9 23.1 25c9.3 20.2 53.5 33.5 63.7 6.1 1.3-3.5 2.2-7.2 2.8-11a69 69 0 01-3.3 30.8z" fill="#371a45" fill-opacity=".35"/>
  <path d="M486.4 353.9s42 61.4 25.8 104.6c-10.3 27.4-55.7 25.7-69.4 5.4" fill="none" stroke="#371a45" stroke-width="6.66"/>
  <path d="M495.2 375.8a133.9 133.9 0 01-77 37.2c-2.5.3-5 .6-7.6.7a133.9 133.9 0 01-77.6-18.5c4.1-27.6 9.6-59 16.2-93.7l124.3 6.7a595.6 595.6 0 0121.7 67.6z" fill="#371a45" fill-opacity=".35"/>
  <path d="M287 323.3a129 129 0 0058.6 53.6l6.4 2.8a133 133 0 0058.6 9.1l7.6-.7a133 133 0 00106.3-80.6 129.1 129.1 0 00-72.2-169.7c-13-5.2-26.4-8.2-39.7-9.1l-4.7-.3a130.3 130.3 0 00-40.7 4.8c-9.1 2.5-18 6-26.4 10.4l-7.9 4.4a132 132 0 00-53.2 62.1 129 129 0 007.3 113.2z" fill="#fff" stroke="#371a45" stroke-width=".67"/>
  <path d="M524.5 307.4A132.7 132.7 0 01418.2 388c-2.5.3-5 .6-7.6.7a133.9 133.9 0 01-77.5-18.5 130 130 0 01-59.5-80.2 129 129 0 0057.1 51l6.4 2.8a133 133 0 0058.6 9.1l7.6-.7a133 133 0 00106.3-80.6c11-26.5 12.5-54.4 6.2-80.1 20.4 33.9 25 76.5 8.7 115.9z" fill="#371a45" fill-opacity=".35"/>
  <path d="M287 323.3a129 129 0 0058.6 53.6l6.4 2.8a133 133 0 0058.6 9.1l7.6-.7a133 133 0 00106.3-80.6 129.1 129.1 0 00-72.2-169.7c-13-5.2-26.4-8.2-39.7-9.1l-4.7-.3a130.3 130.3 0 00-40.7 4.8c-9.1 2.5-18 6-26.4 10.4l-7.9 4.4a132 132 0 00-53.2 62.1 129 129 0 007.3 113.2z" fill="none" stroke="#371a45" stroke-width="5.16"/>
  <path d="M287 323.3a129 129 0 0058.6 53.6l6.4 2.8a133 133 0 0058.6 9.1l7.6-.7a133 133 0 00106.3-80.6 129.1 129.1 0 00-72.2-169.7c-13-5.2-26.4-8.2-39.7-9.1l-4.7-.3a130.3 130.3 0 00-40.7 4.8c-9.1 2.5-18 6-26.4 10.4l-7.9 4.4a132 132 0 00-53.2 62.1 129 129 0 007.3 113.2z" fill="none" stroke="#371a45" stroke-width="6.66"/>
  <path d="M307.2 349.9c78.2 51.8 183 11.6 187.1-80.6 2.8-62.8-57.2-113.6-118.5-112.1-44.6 1.1-87.7 21.4-105.3 90.1 0 0-3 31.6 5.9 52.4 9 20.8 21.3 39.5 21.3 39.5l9.5 10.7z" fill="#371a45"/>
  <path d="M494.3 269.3c-4.2 92.2-108.9 132.4-187.1 80.6l-1.9-2.2c85.4 13.3 169.5-38.8 175.5-132a97 97 0 0113.5 53.6z" fill="#220f2d"/>
  <path d="M287 323.3a129 129 0 0058.6 53.6l6.4 2.8a133 133 0 0020.1 6.2c68.6 4.5 132.6-40.1 136.1-116 3.2-70.5-64.3-127.7-133.2-126-18.4.5-36.6 3.8-53.2 11.7a132 132 0 00-42 54.4 128.8 128.8 0 007.2 113.3z" fill="none" stroke="#371a45" stroke-width="6.66"/>
  <path d="M307.2 349.9c78.2 51.8 183 11.6 187.1-80.6 2.8-62.8-57.2-113.6-118.5-112.1-44.6 1.1-87.7 21.4-105.3 90.1 0 0-3 31.6 5.9 52.4 9 20.8 21.3 39.5 21.3 39.5l9.5 10.7z" fill="none" stroke="#371a45" stroke-width="6.66"/>
  <path d="M552.8 262.4c2 25.6-11.7 48.4-30.6 50.8-18.9 2.4-35.8-16.4-37.7-42.1v-.5c-1.8-25.4 11.9-47.9 30.6-50.3 14.6-1.9 28 9 34.2 25.8 1.9 5 3.1 10.4 3.5 16.3z" fill="#fff"/>
  <path d="M552.8 262.4c2 25.6-11.7 48.4-30.6 50.8-18.9 2.4-35.8-16.4-37.7-42.1v-.5c2.3 2.4 5.7 4.5 10 3.1 7.5-2.5 20-20.7 20-20.7s15.1-3.1 34.8-6.9c1.9 5 3.1 10.4 3.5 16.3z" fill="#371a45" fill-opacity=".35"/>
  <path d="M517.9 220.1c18.9-.3 34.6 20.3 35 46 .5 25.7-14.5 46.8-33.4 47.2-19 .3-34.7-20.3-35.1-46-.5-25.7 14.5-46.9 33.5-47.2z" fill="none" stroke="#371a45" stroke-width="6.66"/>
  <path d="M502 269.2c.4-20.4 13.2-36.8 28.7-36.5 15.4.3 27.7 17.1 27.3 37.6-.4 20.4-13.3 36.7-28.7 36.4-15.5-.3-27.7-17-27.3-37.5z" fill="#fff" stroke="#371a45" stroke-width=".7"/>
  <path d="M504.9 287.5a42.2 42.2 0 01-1.5-20.9c6.4 14.7 20.9 19.7 33.4 11.1a39.4 39.4 0 0015.3-26.3l1.1 2.9c5.7 16.9-.5 38-13.8 47.2-13.4 9.2-28.8 2.9-34.5-14z" fill="#371a45" fill-opacity=".35"/>
  <path d="M529.4 230.7c14.2-.3 26.2 16.5 26.6 37.5.4 21-10.9 38.2-25.2 38.5-14.3.3-26.2-16.5-26.6-37.5-.4-21 10.9-38.2 25.2-38.5z" fill="none" stroke="#371a45" stroke-width="6.66"/>
  <path d="M407.8 179.4s-59.8 5.3-92.1 40.1l-.1.1a55.4 55.4 0 00-13.6 26 112.1 112.1 0 00-2.5 30.2c.9 24.7 6 36.1 6 36.1a62.5 62.5 0 01-24.2-47.5l-.1-6.3.1-1.5c.4-4.4 1.2-10.1 2.6-16.4 4.2-19.2 14.3-44.4 38-56.9 44.2-23.4 87.8-6.6 85.9-3.9zM448.3 219c9.3-3 19.6 3.3 23 14 3.5 10.7-1.3 21.8-10.6 24.7-9.3 3-19.6-3.2-23-13.9-3.5-10.7 1.3-21.8 10.6-24.7zm13.9 46.9c3.7-1.6 8.2.6 10 4.9 1.8 4.2.3 9-3.4 10.6-3.7 1.5-8.2-.6-10-5-1.8-4.2-.3-9 3.4-10.5z" fill="#fff" fill-opacity=".7"/>
  <path d="M414.2 482.7s0 .3-.3.7l.3-.7z" fill-opacity=".35"/>
  <path d="M372 443.7s6 28.8 4.5 33.4c-1.5 4.6-14 28.8-18 21.1-4-7.7-16.6-21.5-12.1-35.5 4.5-14 5.6-20 9.3-19 3.8 1 16.3 0 16.3 0z" fill="#ce2e2e"/>
  <path d="M372 442.3l6.5 31.7m-25-33.1l-9.4 29" fill="none" stroke="#6b184e" stroke-width="5.49"/>
  <path d="M389.1 481.1H220.6l-.8-2.6-.5-1.7-2.2-7-11.3-36.4-4.5-14.7-14.2-45.7a9.8 9.8 0 019.3-12.7h147.5c4.5 0 8.5 3 9.9 7.3l27.2 87.7 2.2 7.2 5.9 18.6z" fill="#33aef1"/>
  <path d="M381.1 455.3a21.3 21.3 0 01-15.7-14.2l-16.8-52.9a20.3 20.3 0 00-19.3-14.1H227.5c-9.5 0-18.1-5.4-22.2-13.7h146.3l29.5 94.9z" fill="#fff" fill-opacity=".35"/>
  <path d="M391.4 481.1v16.3H230.1a9.6 9.6 0 01-9.6-9.5v-6.8h170.9z" fill="#f92323"/>
  <path d="M392.9 481.1L473 442c2.9-1.4 6.3.7 6.3 3.9 0 1.7-.8 3.2-2.3 4l-85.6 47.6" fill="#848484"/>
  <path d="M391.4 488.9v6.9H230.1c-4.4 0-8-2.9-9.2-6.9h170.5z" fill="#371a45" fill-opacity=".35"/>
  <path d="M471.4 442.8l-27.2 20.9-56.1 16.3-11.1-38.5 6 .1 65.4.9 23 .3z" fill="#33aef1"/>
  <path d="M385.3 473.2l43.3-22.6h-46.8l3.5 22.6z" fill="#fff" fill-opacity=".6"/>
  <path d="M389.1 481.1H220.6l-33.7-108.9a9.2 9.2 0 018.8-11.9h149.1c4 0 7.6 2.6 8.8 6.5l35.5 114.3z" fill="none" stroke="#371a45" stroke-width="6.66"/>
  <path d="M391.4 497.4H230.1a9.5 9.5 0 01-9.5-9.5v-6.8h170.8" fill="none" stroke="#371a45" stroke-width="6.66"/>
  <path d="M392.9 481.1L473 442c2.9-1.4 6.3.7 6.3 3.9 0 1.7-.8 3.2-2.3 4l-85.6 47.6" fill="#f92323"/>
  <path d="M479.3 445.8v.1c0 1.6-.9 3.1-2.3 3.9l-85.6 47.6.7-8.2 83.5-43.1c.7-.4 1.3-.9 1.8-1.6.3-.5.5-1.1.6-1.8.8.9 1.3 1.9 1.3 3.1z" fill="#371a45" fill-opacity=".35"/>
  <path d="M392.9 481.1L473 442c2.9-1.4 6.3.7 6.3 3.9 0 1.7-.8 3.2-2.3 4l-85.6 47.6m82.5-56H377m13.5 55.9v-16.3" fill="none" stroke="#371a45" stroke-width="6.66"/>
  <path d="M308.6 498.7s-16.5 19.3-42.9 18c-45.4-2.2-35.3-36.6-25.8-43 24.9-16.7 51 1.3 53.9 8.7 5.3 13.7 14.8 16.3 14.8 16.3z" fill="#fff"/>
  <path d="M308.6 498.7s-16.5 19.2-42.9 18c-27.3-1.3-34.6-14.3-33.9-25.8 4.5 6.6 13.7 11.7 30.4 12.5 16.7.8 29.5-6.6 36.6-12.2 4.8 6.1 9.8 7.5 9.8 7.5z" fill="#371a45" fill-opacity=".35"/>
  <path d="M308.6 498.7s-16.5 19.3-42.9 18c-45.4-2.2-35.3-36.6-25.8-43 24.9-16.7 51 1.3 53.9 8.7 5.3 13.7 14.8 16.3 14.8 16.3z" fill="none" stroke="#371a45" stroke-width="6.66"/>
  <path d="M448.4 442.5c-8.5 25.9-60.9 24.8-65.2.2l-.2-1.1 65.4.9z" fill="#371a45" fill-opacity=".35"/>
  <path d="M485.4 415.5s-23.2-22.1-49.4-22.1c-27 0-57.6 14.5-52.9 41.4 4.6 26.1 63.4 25.8 66.3-5.3" fill="#fff"/>
  <path d="M449.5 429.4c-2.8 31.1-61.7 31.4-66.3 5.3a28 28 0 01.4-12.3c5.9 21 48.5 23.1 61.9 3.9 1.2-1.7 3.9-.9 3.9 1.2v1.9h.1z" fill="#371a45" fill-opacity=".35"/>
  <path d="M485.4 415.5s-23.2-22.1-49.4-22.1c-27 0-57.6 14.5-52.9 41.4 4.6 26.1 63.4 25.8 66.3-5.3" fill="none" stroke="#371a45" stroke-width="6.66"/>
  <path d="M470.2 638.7a59.1 59.1 0 00-34.3-3c-1.9.3-3.7.9-5.5 1.3l-2.7.8-2.8.8-.3.1c-1.8.4-3.6-.7-4-2.4-.4-1.6.4-3.2 1.9-3.8l3-1.3a36.3 36.3 0 019.3-2.5 52.4 52.4 0 0125.3 3c3.9 1.6 7.6 3.6 10.9 6.3.2.2.2.5.1.7h-.9zM384.3 626.9a71.7 71.7 0 00-22-4.1h-2.7l-2.7.2-2.7.3-1.3.2-1.3.3c-3.5.5-6.8 1.8-10.2 2.8l-.3.1c-1.8.5-3.6-.5-4.1-2.2-.5-1.6.3-3.2 1.7-3.9l2.8-1.4 1.4-.6 1.5-.5 3-.9 3.1-.5a50.7 50.7 0 0134.4 9.5c.2.2.2.5.1.7h-.7z" fill="#371a45"/>
  <path d="M459.5 476.1c19.8-1.1 38.3-33.8 14.4-69.6" fill="none" stroke="#371a45" stroke-width="4.99"/>
  <path d="M290.6 441l-.2.1a17 17 0 01-22.5-4.5 16.9 16.9 0 014.7-24l.1-.1c2.3-1.4 5 1 4 3.5-1.7 4.1-1.5 9 1.1 13.1s6.9 6.4 11.4 6.7c2.7.2 3.7 3.8 1.4 5.2z" fill="#fff"/>
</svg>
