<svg xmlns="http://www.w3.org/2000/svg" id="Layer_1" x="0" y="0" version="1.1" viewBox="0 0 800 800" xml:space="preserve"><style>.st2{fill:#fff}.st3{opacity:.35;fill:#371a45}.st4{fill:none;stroke:#371a45;stroke-width:6.6595;stroke-linecap:round;stroke-linejoin:round;stroke-miterlimit:10}.st5{fill:#371a45}.st6{fill:none;stroke:#371a45;stroke-width:4.9946;stroke-linecap:round;stroke-linejoin:round;stroke-miterlimit:10}.st15{opacity:.7;fill:#fff}.st16{opacity:.35}.st19{fill:none;stroke:#6b184e;stroke-width:5.4897;stroke-linecap:round;stroke-linejoin:round;stroke-miterlimit:10}.st20{fill:#33aef1}.st22{fill:#f92323}</style><path fill="transparent" d="M0 0h800v800H0z"/><ellipse cx="418.5" cy="667.5" fill="#371a45" opacity=".3" rx="166.5" ry="29.5"/><path d="M541.3 522.6c-17.9 23.4-64.6 15.3-64.6 15.3l-.4-157.9-.1-31.9s26.6.7 46.8 9.1c9.7 4 18 9.8 21.1 18.2 10.8 28.9 11.9 128-2.8 147.2z" class="st2"/><path d="M552.2 441.2c.6 34.6-2.6 70.6-10.9 81.4-17.9 23.4-64.6 15.3-64.6 15.3l-.5-189.8s.5 0 1.4.1l.4 148s46.7 8.1 64.6-15.3c4.9-6.4 8-21.4 9.6-39.7z" class="st3"/><path d="M476.2 348.1s58.4 1.6 67.9 27.2c10.8 29 11.9 128.1-2.9 147.3-17.9 23.4-64.6 15.3-64.6 15.3" class="st4"/><path d="M548.8 455.7l-31.8 2.4c-2.8.2-5.2 2.3-5.7 5.1-1.9 10.3-4.9 34.2 5.1 42.1 8.3 6.6 21.7 5.8 29.6-.9 8.8-7.5 9.7-30.9 9.5-42.5 0-3.6-3.1-6.4-6.7-6.2z" class="st2"/><path d="M511.3 463.2c-1.9 10.3-4.9 34.2 5.1 42.1 8.3 6.6 21.7 5.8 29.6-.9 5.4-4.6 7.8-15.2 8.9-25.4-1.4 5.1-3.7 9.2-6.5 12-16 15.6-28-2.8-28-2.8s-2.1 4.5-3.7 4.7c-6.9 1.1-5.5-20.6-4.5-31.8-.4.6-.7 1.3-.9 2.1z" class="st3"/><path d="M548.8 455.7l-31.8 2.4c-2.8.2-5.2 2.3-5.7 5.1-1.9 10.3-4.9 34.2 5.1 42.1 8.3 6.6 21.7 5.8 29.6-.9 8.8-7.5 9.7-30.9 9.5-42.5 0-3.6-3.1-6.4-6.7-6.2z" class="st4"/><path d="M523.3 469.4c.4 4 .4 7.8.6 11.6.2 3.8.7 7.5 1.6 10.9.9 3.5 2.4 6.7 4.5 9.1 2.1 2.4 5 4 8.2 4.7 1.8.4 2.9 2.2 2.5 4-.4 1.8-2.2 2.9-4 2.5-.1 0-.2 0-.2-.1-2.1-.7-4.2-1.6-6.1-2.8-1.9-1.2-3.6-2.8-4.9-4.6-2.7-3.6-4.2-7.7-4.9-11.7-.8-4-1-8-1-11.9 0-3.9.3-7.8.2-11.5 0-1 .7-1.8 1.7-1.8 1-.1 1.7.6 1.8 1.6zM530 374.2c-2.9.2-5.9.6-8.8 1-2.9.4-5.9.9-8.8 1.5-2.9.5-5.8 1.2-8.7 1.9-2.9.7-5.7 1.5-8.5 2.4h-.1c-1.8.5-3.6-.5-4.2-2.2-.5-1.8.5-3.6 2.2-4.2.1 0 .2-.1.3-.1 3-.6 6-1.1 9.1-1.5 3-.4 6.1-.7 9.1-1 3-.3 6.1-.4 9.1-.5 3-.1 6-.1 9.1-.1.8 0 1.4.7 1.4 1.5.2.7-.4 1.3-1.2 1.3z" class="st5"/><path d="M523.1 357.1c-13.9 10.6-29.9 18.3-46.8 22.8l-.1-31.9c0 .1 26.7.8 46.9 9.1z" class="st3"/><path d="M414.2 640.3c-13.6 31.5-71.8 26.3-86.5 13.3-15.1-13.4 12.2-30.1 12.2-30.1-12.1-20.6-12.5-60-11.2-85.3.7-13.9 1.9-23.5 1.9-23.5l85.8-46.5c-.1 17.5-3 32.4-5.6 44.4-5.6 25.4-5.2 45-3 61 4.2 29.8 14.9 47.1 6.4 66.7z" class="st2"/><path d="M414.2 640.3c-13.6 31.5-71.8 26.3-86.5 13.3-4.7-4.2-5.3-8.8-3.8-13 19.9 11.7 70.4 20.6 80.3-9.2 4.8-14.6-4.6-24.7-9.7-44.4-2.2-8.3-8.7-14.7-17-16.9-17.6-4.5-39.3-14.1-48.2-30.8-.2-.3-.4-.7-.5-1.1.7-13.9 1.9-23.5 1.9-23.5l76.8-41.6 9-4.9c-.1 17.5-3 32.4-5.6 44.4-.4 1.9-.8 3.7-1.1 5.5-.3 1.8-.7 3.6-.9 5.3-.1.9-.3 1.7-.4 2.6-.4 2.6-.7 5.1-1 7.5-.1.8-.2 1.6-.2 2.4-.1 1.5-.3 3-.4 4.5-.3 4.6-.4 9-.4 13.1v1.3c0 .9 0 1.8.1 2.7 0 1.2.1 2.4.2 3.6.1.9.1 1.7.2 2.5 0 .6.1 1.1.1 1.6s.1.9.1 1.4c0 .4.1.9.1 1.3.2 1.9.4 3.7.7 5.5 4 30 14.7 47.3 6.2 66.9z" class="st3"/><path d="M409.6 518.2c-.3 1.8-.7 3.6-.9 5.3.2-1.7.6-3.5.9-5.3z" class="st3"/><path d="M330.5 514.8s-9.5 76.8 9.3 108.8c0 0-27.2 16.7-12.2 30.1 14.7 13 72.9 18.2 86.5-13.3 13-30.2-19.4-55-3.5-127.6 2.6-12 5.5-26.9 5.6-44.4" class="st4"/><path d="M414.7 595.5s-55.6 6.2-85.3-10.5" class="st6"/><path d="M507.9 469.3c-.3 12.8-1.9 23.7-4.8 32.1-.1.3-.2.5-.3.8-1.8 5.2-4.1 10.1-6.8 14.6-8.7 14.8-21.6 26.1-37.4 33.1-7.1 3.2-26.2 11-51.8 11.3-3.4 0-6.9-.1-10.5-.3-16-1.1-54.4-10.3-67.1-34.1-8.5-16-6.5-61.9 3.9-131.5 4.1-27.6 9.6-59 16.2-93.7l124.3 6.7c9 23.5 16.1 46.3 21.5 67.6 9.3 36.3 13.4 68.6 12.8 93.4z" class="st2"/><path d="M502.8 502.2c-7.7 22-23.6 38.6-44.2 47.7-8 3.6-31.5 13.1-62.3 11-16-1.1-54.4-10.3-67.1-34.1-4-7.4-5.6-21.2-5.3-40.9.3 11.7 2 20.1 5.3 25.1 12.7 19.5 51.2 27.1 67.1 28 30.8 1.8 54.3-6.1 62.3-9 20.6-7.5 36.4-21.2 44.2-39.2 3.2-7.5 5-17.4 5.1-29.3.2 16.7-1.5 30.5-5.1 40.7z" class="st3"/><path d="M327.3 438.8c-2 18.2-3.2 34-3.4 47.1-.3-12.2.9-28.1 3.4-47.1zM507.9 461.4c-.1-7.1-.5-14.7-1.3-22.7 1 8.2 1.4 15.8 1.3 22.7z" class="st3"/><path d="M473.7 308.2c32.5 85.1 41.1 160 29.1 193.9-7.7 22-23.6 38.6-44.2 47.8-8 3.6-31.5 13.1-62.3 11l-15.2-2.4M349.3 301.5c-23.3 122.3-32.1 203-20.2 225.3 1.8 3.4 4.2 6.5 6.9 9.4 11.3 11.7 29.2 18.6 43.7 22" class="st4"/><path d="M409.5 538.6s-13 65.1 14 96.7c0 0-27.2 16.7-12.2 30.1 14.7 13 72.9 18.2 86.5-13.3 13-30.2-19.4-55-3.5-127.6 2.6-12 5.5-26.9 5.6-44.4l-90.4 58.5z" class="st2"/><path d="M494.4 524.6c-15.9 72.6 16.5 97.5 3.5 127.6-13.6 31.5-71.8 26.3-86.5 13.3-3.9-3.5-5-7.2-4.4-10.8 19.8 10.4 69.3 12.2 81.7-16.5 4.5-10.4-22.6-30.6-22.8-53.1-.2-18.9 5.1-38.2 10.7-53.2 4.5-12-4.1-24.9-16.9-25.5h-.3c-7.3-.4-15.2-1.4-23.6-3.2 0 0-13.7-17.4 1.6-27.1 0 0 46.5 6.4 70.6-6.7-.3 12.8-1.9 23.7-4.8 32.1-1.4.4-3 .9-4.7 1.3-1.2 8-2.7 15.4-4.1 21.8z" class="st3"/><path d="M410.6 539c.2 8.4-.2 16.7-.5 24.9-.2 8.2-.3 16.4.4 24.6.3 4.1.8 8.1 1.5 12.1s1.7 7.9 2.9 11.8c1.3 3.8 2.7 7.6 4.6 11.1 1.9 3.5 4 6.8 6.5 9.8 1.2 1.4 1 3.5-.4 4.7l-.3.3c-1.2.7-2.5 1.7-3.7 2.6-1.2.9-2.4 1.9-3.5 2.9-2.2 2-4.3 4.2-5.8 6.6-1.5 2.3-2.4 4.8-2.1 7 .3 2.1 1.6 4.2 3.7 5.9 2 1.7 4.7 3.1 7.5 4.2s5.7 2 8.7 2.7c6 1.4 12.3 2.1 18.5 2.2 3.1 0 6.2-.1 9.3-.3 3.1-.3 6.1-.7 9.1-1.4 6-1.3 11.8-3.5 16.7-6.8 2.4-1.7 4.7-3.6 6.6-5.7 1.9-2.2 3.4-4.7 4.6-7.3 2.3-5.5 3.2-11.3 2.7-17.4-.4-6.1-1.9-12.2-3.4-18.4-1.5-6.2-3.1-12.6-4.4-19-2.6-12.9-3.7-26.1-3.1-39.3.3-6.6 1-13.1 1.9-19.6 1-6.5 2.4-13 3.7-19.2 1.3-6.3 2-12.6 2.9-18.8.9-6.3 1.7-12.5 3.6-18.9.2-.6.8-1 1.4-.8.4.1.7.4.8.8 1.8 6.5 1.8 13.2 1.2 19.7-.6 6.6-2.1 13-3.4 19.3-1.4 6.4-2.7 12.5-3.7 18.8-.9 6.3-1.6 12.6-1.9 18.9-.6 12.6.5 25.3 3 37.7 1.2 6.2 2.8 12.4 4.3 18.7 1.5 6.3 3.1 12.7 3.5 19.6.5 6.8-.5 14-3.2 20.5-1.4 3.3-3.3 6.3-5.6 9s-5.1 5-7.9 6.9c-5.8 3.9-12.4 6.2-18.9 7.7-3.3.8-6.6 1.2-10 1.5-3.3.3-6.7.4-10 .4-6.7-.1-13.3-.9-19.9-2.4-3.3-.8-6.5-1.7-9.7-3-3.2-1.3-6.3-2.9-9.3-5.3-.4-.3-.7-.6-1.1-1l-1-1c-.6-.8-1.3-1.5-1.8-2.4-1.1-1.7-1.9-3.8-2.1-5.9-.3-2.1.1-4.3.7-6.1.6-1.9 1.5-3.6 2.4-5.1 2-3.1 4.4-5.6 6.9-8 1.3-1.2 2.6-2.2 3.9-3.3 1.4-1 2.7-2 4.2-3l-.8 5c-2.9-3.4-5.3-7.2-7.4-11-2.1-3.9-3.7-8-5-12.1-1.4-4.1-2.3-8.4-3.2-12.6-.4-2.1-.7-4.2-1.1-6.4-.3-2.1-.6-4.3-.8-6.4-.9-8.5-1-17.1-.3-25.6.3-4.2.8-8.5 1.7-12.6.9-4.2 1.9-8.3 3.5-12.3.2-.6.9-.9 1.5-.6.6.3.9.7.9 1.1z" class="st5"/><path d="M493 595.5s-48.2 15.3-85.5-2.1" class="st6"/><circle cx="317.4" cy="465.5" r="15.5" class="st2"/><path d="M302 465.9c.2 8.5 7.3 15.3 15.9 15.1 8.5-.2 15.3-7.3 15.1-15.9-.1-2.4-.6-4.6-1.7-6.6-2.3 5.3-7.6 9.1-13.8 9.2-6.2.2-11.6-3.3-14.2-8.5-.9 2.1-1.4 4.4-1.3 6.7z" class="st3"/><circle cx="317.4" cy="465.5" r="15.5" class="st4"/><path d="M324.9 480.6c2.6-17.4 3.1-33.5 2.4-47.8-.4 8.3-1.1 17-2.5 26-1.6 10.6-2.1 21.7-1.1 32.6.3-3.7.7-7.3 1.2-10.8z" class="st3"/><path d="M339.8 510.6l80.8 4.2c9.6.5 17.8-6.9 18.3-16.5l2.2-43c.4-8.4-5.2-15.7-13.1-17.8-1.1-.3-2.3-.5-3.5-.5l-80.8-4.2c-9.6-.5-17.8 6.9-18.3 16.5l-1.8 34.1-.5 8.9c-.3 9.6 7.2 17.8 16.7 18.3z" class="st2"/><path d="M339.8 510.6l80.8 4.2c9.6.5 17.8-6.9 18.3-16.5l2.2-43c.4-8.4-5.2-15.7-13.1-17.8-4.7 2.8-7.8 4.6-7.8 4.6-5.7 34.3-16.4 51-59.3 49.5-18.5-.7-30.1-4.1-37.2-8.3l-.5 8.9c-.4 9.7 7.1 17.9 16.6 18.4z" class="st3"/><path d="M420.7 514.7l-80.8-4.2c-9.6-.5-17-8.7-16.5-18.3l2.2-43c.5-9.6 8.7-17 18.3-16.5l80.8 4.2c9.6.5 17 8.7 16.5 18.3l-2.2 43c-.5 9.6-8.8 17-18.3 16.5z" class="st4"/><path d="M336.6 510.1c1 .3 2.1.4 3.2.5l80.8 4.2c7 .4 13.3-3.5 16.4-9.4 1.1-2.1 1.8-4.5 1.9-7.1l1-19.1.3-6.3.9-17.6c.5-9.6-6.9-17.8-16.5-18.3l-17.5-.9c8 1.9 13.7 9.3 13.3 17.8l-1.2 23.2-1 19.8c-.5 9.6-8.7 17-18.3 16.5l-63.3-3.3z" class="st2"/><path d="M336.6 510.1c1 .3 2.1.4 3.2.5l80.8 4.2c9.6.5 17.8-6.9 18.3-16.5l1.3-25.4c-2.3 4.4-6.2 9.7-12.1 10-3.2.2-6.3-2.3-8.9-5.7l-1 19.8c-.5 9.6-8.7 17-18.3 16.5l-63.3-3.4z" class="st3"/><path d="M439 498.2c-.5 9.6-8.7 17-18.3 16.5l-80.8-4.2c-1.1-.1-2.2-.2-3.2-.5l63.4 3.3c9.6.5 17.8-6.9 18.3-16.5l2.2-43c.4-8.5-5.3-15.9-13.3-17.8l17.5.9c9.6.5 17 8.7 16.5 18.3l-2.3 43z" class="st4"/><path fill="#22a7f0" d="M387.5 474c-.1 1.6 1.6 14.5 1.6 14.5s4.1.2 9.1.4c6.2.3 11.6-5.9 12-13.9.4-8-4.4-14.7-10.6-15-4.2-.2-9.1-.4-9.1-.4s-2.9 11.9-3 14.4z"/><path d="M387.5 474c-.1 1.6 1.6 14.5 1.6 14.5s4.1.2 9.1.4c6.2.3 11.6-5.9 12-13.9.4-8-4.4-14.7-10.6-15-4.2-.2-9.1-.4-9.1-.4s-2.9 11.9-3 14.4z" class="st3"/><path d="M387.5 474c-.1 1.1.8 7.9 1.2 11.8.2 1.6 1.5 2.8 3.1 2.9l6.3.3c6.2.3 11.6-5.9 12-13.9.4-8-4.4-14.7-10.6-15l-6.3-.3c-1.6-.1-3 1-3.4 2.6-.8 3.6-2.2 9.8-2.3 11.6z" class="st6"/><ellipse cx="389.7" cy="474.1" fill="#22a7f0" stroke="#371a45" stroke-linecap="round" stroke-linejoin="round" stroke-miterlimit="10" stroke-width="4.995" rx="14.5" ry="11.3" transform="rotate(-87.386 389.742 474.146) scale(1.00004)"/><path d="M354.3 433.3l-1.9 39 13.4 9.4-.8 29.9" class="st6"/><path d="M511.4 454.5s7.5 6 7.8 15.1c.4 10.6-6.3 14.9-6.3 14.9s-29.1 14.9-75.7 5c0 0-13.7-17.4 1.6-27.1-.1 0 49.2 6.7 72.6-7.9z" class="st2"/><path d="M519.2 469.6c.4 10.6-6.3 14.9-6.3 14.9s-29.1 14.9-75.7 5c0 0-4.5-5.7-5.5-12.4.2.3.4.5.4.5 34.1 7.2 58.8 1.2 69.6-2.5 7.5-2.6 12.5-9.4 12.4-17.1v-.3-.5c2.1 2.6 4.9 6.9 5.1 12.4z" class="st3"/><path d="M511.4 454.5s7.5 6 7.8 15.1c.4 10.6-6.3 14.9-6.3 14.9s-29.1 14.9-75.7 5c0 0-13.7-17.4 1.6-27.1-.1 0 49.2 6.7 72.6-7.9z" class="st4"/><path d="M486.4 353.9s42 61.4 25.8 104.6c-10.3 27.4-55.7 25.7-69.4 5.4l-26.9-47.4 70.5-62.6z" class="st2"/><path d="M512.2 458.5c-10.3 27.4-55.6 25.7-69.4 5.4l-26.9-47.4 10-8.9 23.1 25c9.3 20.2 53.5 33.5 63.7 6.1 1.3-3.5 2.2-7.2 2.8-11 1 10.7.3 21.2-3.3 30.8z" class="st3"/><path d="M486.4 353.9s42 61.4 25.8 104.6c-10.3 27.4-55.7 25.7-69.4 5.4" class="st4"/><path d="M495.2 375.8c-20.9 20.5-48.1 33.6-77 37.2-2.5.3-5 .6-7.6.7-7 .5-14 .4-21-.2-5.8-.5-11.7-1.4-17.5-2.7-6.7-1.5-13.4-3.6-20.1-6.2-2.2-.9-4.3-1.8-6.5-2.8-4.3-2-8.5-4.2-12.5-6.6 4.1-27.6 9.6-59 16.2-93.7l124.3 6.7c9.1 23.6 16.3 46.3 21.7 67.6z" class="st3"/><path fill="#fff" stroke="#371a45" stroke-linecap="round" stroke-linejoin="round" stroke-miterlimit="10" stroke-width=".67" d="M287 323.3c10.8 19 26.5 35.3 46.1 47 4 2.4 8.2 4.6 12.5 6.6 2.1 1 4.3 1.9 6.4 2.8 6.6 2.6 13.3 4.7 20.1 6.2 5.8 1.3 11.7 2.2 17.5 2.7 7 .6 14.1.7 21 .2 2.5-.2 5.1-.4 7.6-.7 45.9-5.8 87.5-35.3 106.3-80.6 27.7-66.8-4.6-142.8-72.2-169.7-13-5.2-26.4-8.2-39.7-9.1-1.6-.1-3.1-.2-4.7-.3-4.2-.2-8.3-.1-12.5.1-9.6.5-19 2.1-28.2 4.7-9.1 2.5-18 6-26.4 10.4-2.7 1.4-5.3 2.9-7.9 4.4-3.9 2.4-7.6 4.9-11.2 7.7-18 13.7-32.7 32.1-42 54.4-15.7 38.3-11.8 79.7 7.3 113.2z"/><path d="M524.5 307.4c-18.8 45.4-60.4 74.8-106.3 80.6-2.5.3-5 .6-7.6.7-7 .5-14 .4-21-.2-5.8-.5-11.7-1.4-17.5-2.7-6.7-1.5-13.4-3.6-20.1-6.2-2.2-.9-4.3-1.8-6.4-2.8-4.3-2-8.5-4.2-12.5-6.6-19.7-11.7-35.3-28.1-46.2-47-5.9-10.4-10.4-21.6-13.3-33.2 10.7 17.9 25.9 33.2 44.6 44.4 4 2.4 8.2 4.6 12.5 6.6 2.1 1 4.3 1.9 6.4 2.8 6.6 2.6 13.3 4.7 20.1 6.2 5.8 1.3 11.7 2.2 17.5 2.7 7 .6 14.1.7 21 .2 2.5-.2 5.1-.4 7.6-.7 45.9-5.8 87.5-35.3 106.3-80.6 11-26.5 12.5-54.4 6.2-80.1 20.4 33.9 25 76.5 8.7 115.9z" class="st3"/><path fill="none" stroke="#371a45" stroke-linecap="round" stroke-linejoin="round" stroke-miterlimit="10" stroke-width="5.162" d="M287 323.3c10.8 19 26.5 35.3 46.1 47 4 2.4 8.2 4.6 12.5 6.6 2.1 1 4.3 1.9 6.4 2.8 6.6 2.6 13.3 4.7 20.1 6.2 5.8 1.3 11.7 2.2 17.5 2.7 7 .6 14.1.7 21 .2 2.5-.2 5.1-.4 7.6-.7 45.9-5.8 87.5-35.3 106.3-80.6 27.7-66.8-4.6-142.8-72.2-169.7-13-5.2-26.4-8.2-39.7-9.1-1.6-.1-3.1-.2-4.7-.3-4.2-.2-8.3-.1-12.5.1-9.6.5-19 2.1-28.2 4.7-9.1 2.5-18 6-26.4 10.4-2.7 1.4-5.3 2.9-7.9 4.4-3.9 2.4-7.6 4.9-11.2 7.7-18 13.7-32.7 32.1-42 54.4-15.7 38.3-11.8 79.7 7.3 113.2z"/><path d="M287 323.3c10.8 19 26.5 35.3 46.1 47 4 2.4 8.2 4.6 12.5 6.6 2.1 1 4.3 1.9 6.4 2.8 6.6 2.6 13.3 4.7 20.1 6.2 5.8 1.3 11.7 2.2 17.5 2.7 7 .6 14.1.7 21 .2 2.5-.2 5.1-.4 7.6-.7 45.9-5.8 87.5-35.3 106.3-80.6 27.7-66.8-4.6-142.8-72.2-169.7-13-5.2-26.4-8.2-39.7-9.1-1.6-.1-3.1-.2-4.7-.3-4.2-.2-8.3-.1-12.5.1-9.6.5-19 2.1-28.2 4.7-9.1 2.5-18 6-26.4 10.4-2.7 1.4-5.3 2.9-7.9 4.4-3.9 2.4-7.6 4.9-11.2 7.7-18 13.7-32.7 32.1-42 54.4-15.7 38.3-11.8 79.7 7.3 113.2z" class="st4"/><path d="M307.2 349.9c78.2 51.8 183 11.6 187.1-80.6 2.8-62.8-57.2-113.6-118.5-112.1-44.6 1.1-87.7 21.4-105.3 90.1 0 0-3 31.6 5.9 52.4 9 20.8 21.3 39.5 21.3 39.5l9.5 10.7z" class="st5"/><path fill="#220f2d" d="M494.3 269.3c-4.2 92.2-108.9 132.4-187.1 80.6l-1.9-2.2c85.4 13.3 169.5-38.8 175.5-132 9.3 16 14.4 34.2 13.5 53.6z"/><path d="M287 323.3c10.8 19 26.5 35.3 46.1 47 4 2.4 8.2 4.6 12.5 6.6 2.1 1 4.3 1.9 6.4 2.8 6.6 2.6 13.3 4.7 20.1 6.2 68.6 4.5 132.6-40.1 136.1-116 3.2-70.5-64.3-127.7-133.2-126-18.4.5-36.6 3.8-53.2 11.7-18 13.7-32.7 32.1-42 54.4-15.8 38.4-11.9 79.8 7.2 113.3z" class="st4"/><path d="M307.2 349.9c78.2 51.8 183 11.6 187.1-80.6 2.8-62.8-57.2-113.6-118.5-112.1-44.6 1.1-87.7 21.4-105.3 90.1 0 0-3 31.6 5.9 52.4 9 20.8 21.3 39.5 21.3 39.5l9.5 10.7z" class="st4"/><path d="M552.8 262.4c2 25.6-11.7 48.4-30.6 50.8-18.9 2.4-35.8-16.4-37.7-42.1v-.5c-1.8-25.4 11.9-47.9 30.6-50.3 14.6-1.9 28 9 34.2 25.8 1.9 5 3.1 10.4 3.5 16.3z" class="st2"/><path d="M552.8 262.4c2 25.6-11.7 48.4-30.6 50.8-18.9 2.4-35.8-16.4-37.7-42.1v-.5c2.3 2.4 5.7 4.5 10 3.1 7.5-2.5 20-20.7 20-20.7s15.1-3.1 34.8-6.9c1.9 5 3.1 10.4 3.5 16.3z" class="st3"/><ellipse cx="518.7" cy="266.7" class="st4" rx="34.3" ry="46.6" transform="matrix(.9998 -.01772 .01772 .9998 -4.644 9.232)"/><ellipse cx="530" cy="269.7" fill="#fff" stroke="#371a45" stroke-linecap="round" stroke-linejoin="round" stroke-miterlimit="10" stroke-width=".696" rx="37" ry="28" transform="rotate(-88.911 530.008 269.708) scale(.99998)"/><path d="M504.9 287.5c-2.3-6.6-2.7-13.9-1.5-20.9 6.4 14.7 20.9 19.7 33.4 11.1 8.1-5.6 13.6-15.5 15.3-26.3.4.9.8 1.9 1.1 2.9 5.7 16.9-.5 38-13.8 47.2-13.4 9.2-28.8 2.9-34.5-14z" class="st3"/><ellipse cx="530.1" cy="268.7" class="st4" rx="25.9" ry="38" transform="matrix(.9998 -.01936 .01936 .9998 -5.104 10.313)"/><path d="M407.8 179.4s-59.8 5.3-92.1 40.1l-.1.1c-6.8 7.3-11.5 16.3-13.6 26-2.8 12.8-2.8 22.1-2.5 30.2.9 24.7 6 36.1 6 36.1-14.7-12.5-23.3-27-24.2-47.5-.1-2-.1-4.1-.1-6.3 0-.5 0-1 .1-1.5.4-4.4 1.2-10.1 2.6-16.4 4.2-19.2 14.3-44.4 38-56.9 44.2-23.4 87.8-6.6 85.9-3.9z" class="st15"/><ellipse cx="454.5" cy="238.4" class="st15" rx="17.7" ry="20.3" transform="rotate(-17.768 454.506 238.361)"/><ellipse cx="465.5" cy="273.6" class="st15" rx="7.3" ry="8.4" transform="rotate(-23.099 465.551 273.637)"/><g><path d="M236.9 489.7v0zM414.2 482.7s0 .3-.3.7c.1-.3.2-.5.3-.7z" class="st16"/><path fill="#ce2e2e" d="M372 443.7s6 28.8 4.5 33.4-14 28.8-18 21.1c-4-7.7-16.6-21.5-12.1-35.5 4.5-14 5.6-20 9.3-19 3.8 1 16.3 0 16.3 0z"/><path d="M372 442.3l6.5 31.7M353.5 440.9l-9.4 29" class="st19"/><path d="M389.1 481.1H220.6l-.8-2.6-.5-1.7-2.2-7-11.3-36.4-4.5-14.7-14.2-45.7c-1.9-6.3 2.8-12.7 9.3-12.7h147.5c4.5 0 8.5 3 9.9 7.3l27.2 87.7 2.2 7.2 5.9 18.6z" class="st20"/><path fill="#fff" d="M381.1 455.3c-7.3-1.6-13.3-6.9-15.7-14.2l-16.8-52.9c-2.7-8.4-10.5-14.1-19.3-14.1H227.5c-9.5 0-18.1-5.4-22.2-13.7h146.3l29.5 94.9z" opacity=".35"/><path d="M391.4 481.1v16.3H230.1c-4.4 0-8-2.9-9.2-6.9-.2-.8-.4-1.7-.4-2.6v-6.8h170.9z" class="st22"/><path fill="#848484" d="M392.9 481.1L473 442c2.9-1.4 6.3.7 6.3 3.9 0 1.7-.8 3.2-2.3 4l-85.6 47.6"/><path d="M391.4 488.9v6.9H230.1c-4.4 0-8-2.9-9.2-6.9h170.5z" class="st3"/><path d="M471.4 442.8l-27.2 20.9-56.1 16.3-11.1-38.5 6 .1 65.4.9z" class="st20"/><path fill="#fff" d="M385.3 473.2l43.3-22.6h-46.8z" opacity=".6"/><path d="M389.1 481.1H220.6l-33.7-108.9c-1.8-5.9 2.6-11.9 8.8-11.9h149.1c4 0 7.6 2.6 8.8 6.5l35.5 114.3z" class="st4"/><path d="M391.4 497.4H230.1c-5.3 0-9.5-4.3-9.5-9.5v-6.8h170.8" class="st4"/><path d="M392.9 481.1L473 442c2.9-1.4 6.3.7 6.3 3.9 0 1.7-.8 3.2-2.3 4l-85.6 47.6" class="st22"/><path d="M479.3 445.8v.1c0 1.6-.9 3.1-2.3 3.9l-85.6 47.6.7-8.2 83.5-43.1c.7-.4 1.3-.9 1.8-1.6.3-.5.5-1.1.6-1.8.8.9 1.3 1.9 1.3 3.1z" class="st3"/><path d="M392.9 481.1L473 442c2.9-1.4 6.3.7 6.3 3.9 0 1.7-.8 3.2-2.3 4l-85.6 47.6M473.9 441.5H377M390.5 497.4v-16.3" class="st4"/></g><path d="M308.6 498.7s-16.5 19.3-42.9 18c-45.4-2.2-35.3-36.6-25.8-43 24.9-16.7 51 1.3 53.9 8.7 5.3 13.7 14.8 16.3 14.8 16.3z" class="st2"/><path d="M308.6 498.7s-16.5 19.2-42.9 18c-27.3-1.3-34.6-14.3-33.9-25.8 4.5 6.6 13.7 11.7 30.4 12.5 16.7.8 29.5-6.6 36.6-12.2 4.8 6.1 9.8 7.5 9.8 7.5z" class="st3"/><path d="M308.6 498.7s-16.5 19.3-42.9 18c-45.4-2.2-35.3-36.6-25.8-43 24.9-16.7 51 1.3 53.9 8.7 5.3 13.7 14.8 16.3 14.8 16.3z" class="st4"/><path d="M448.4 442.5c-8.5 25.9-60.9 24.8-65.2.2-.1-.4-.1-.7-.2-1.1l65.4.9z" class="st3"/><path d="M485.4 415.5s-23.2-22.1-49.4-22.1c-27 0-57.6 14.5-52.9 41.4 4.6 26.1 63.4 25.8 66.3-5.3" class="st2"/><path d="M449.5 429.4c-2.8 31.1-61.7 31.4-66.3 5.3-.8-4.5-.6-8.6.4-12.3 5.9 21 48.5 23.1 61.9 3.9 1.2-1.7 3.9-.9 3.9 1.2v1.9z" class="st3"/><path d="M485.4 415.5s-23.2-22.1-49.4-22.1c-27 0-57.6 14.5-52.9 41.4 4.6 26.1 63.4 25.8 66.3-5.3" class="st4"/><g><path d="M470.2 638.7c-3.7-1.5-7.6-2.6-11.4-3.3-3.9-.7-7.7-1.1-11.6-1-3.8.1-7.6.5-11.3 1.3-1.9.3-3.7.9-5.5 1.3-.9.2-1.8.5-2.7.8-.9.3-1.8.5-2.8.8l-.3.1c-1.8.4-3.6-.7-4-2.4-.4-1.6.4-3.2 1.9-3.8 1-.4 2-.9 3-1.3s2-.8 3-1.1c2.1-.6 4.2-1.2 6.3-1.4 4.3-.7 8.6-.6 12.9-.1 4.3.5 8.4 1.6 12.4 3.1 3.9 1.6 7.6 3.6 10.9 6.3.2.2.2.5.1.7-.5.1-.7.1-.9 0z" class="st5"/></g><g><path d="M384.3 626.9c-3.6-1.3-7.3-2.3-11-3-3.7-.7-7.4-1.1-11-1.1h-2.7c-.9.1-1.8.1-2.7.2-.9 0-1.8.2-2.7.3-.4.1-.9.1-1.3.2s-.9.2-1.3.3c-3.5.5-6.8 1.8-10.2 2.8l-.3.1c-1.8.5-3.6-.5-4.1-2.2-.5-1.6.3-3.2 1.7-3.9.9-.5 1.9-.9 2.8-1.4l1.4-.6c.5-.2 1-.3 1.5-.5l3-.9c1-.2 2.1-.4 3.1-.5 4.1-.6 8.4-.5 12.4.2 4.1.6 8 1.8 11.7 3.3 3.7 1.6 7.2 3.5 10.3 6 .2.2.2.5.1.7-.3 0-.5.1-.7 0z" class="st5"/></g><path d="M459.5 476.1c19.8-1.1 38.3-33.8 14.4-69.6" class="st6"/><path d="M290.6 441c-.1 0-.1.1-.2.1-7.5 4.6-17.5 2.6-22.5-4.5-5.6-7.9-3.4-18.9 4.7-24 0 0 .1 0 .1-.1 2.3-1.4 5 1 4 3.5-1.7 4.1-1.5 9 1.1 13.1s6.9 6.4 11.4 6.7c2.7.2 3.7 3.8 1.4 5.2z" class="st2"/></svg>
